<?xml version="1.0" standalone="no"?>
<!DOCTYPE svg PUBLIC "-//W3C//DTD SVG 20010904//EN"
 "http://www.w3.org/TR/2001/REC-SVG-20010904/DTD/svg10.dtd">
<svg version="1.0" xmlns="http://www.w3.org/2000/svg"
 width="512.000000pt" height="512.000000pt" viewBox="0 0 512.000000 512.000000"
 preserveAspectRatio="xMidYMid meet">

<g transform="translate(0.000000,512.000000) scale(0.100000,-0.100000)"
fill="#000000" stroke="none">
<path d="M2459 5092 c-80 -41 -113 -94 -117 -185 -3 -61 0 -79 21 -117 l24
-45 -24 -44 c-17 -33 -23 -60 -23 -106 0 -46 6 -74 23 -106 l24 -44 -23 -42
c-13 -25 -25 -71 -29 -115 l-7 -72 -27 59 c-16 35 -44 75 -67 94 -38 34 -39
37 -40 100 0 46 -7 78 -22 107 -19 38 -74 94 -91 94 -4 0 -7 33 -6 73 0 61 -4
79 -28 120 -50 84 -148 128 -238 107 -103 -25 -179 -118 -179 -221 0 -60 42
-143 89 -177 36 -26 37 -27 33 -84 -4 -48 0 -67 23 -114 16 -33 40 -64 60 -77
33 -21 34 -24 33 -87 0 -45 7 -80 21 -114 12 -27 20 -50 18 -53 -2 -2 -25 15
-50 37 -47 42 -102 70 -136 70 -13 0 -21 9 -25 33 -14 76 -82 146 -166 170
-39 11 -44 16 -57 60 -19 67 -76 122 -148 143 -63 18 -107 13 -165 -16 -181
-93 -151 -365 47 -415 40 -10 49 -16 54 -41 16 -78 80 -145 160 -165 44 -12
48 -15 60 -57 8 -29 31 -64 67 -104 l55 -59 -58 22 c-55 21 -132 28 -171 15
-14 -4 -25 3 -41 28 -13 21 -43 45 -77 61 -47 23 -66 27 -116 23 -60 -4 -60
-4 -109 43 -36 35 -61 49 -100 59 -215 51 -366 -198 -220 -364 52 -58 109 -81
189 -73 57 5 61 4 81 -24 44 -62 150 -101 220 -81 33 9 37 7 69 -31 22 -26 58
-51 104 -73 l71 -33 -66 0 c-52 -1 -78 -7 -124 -30 l-57 -29 -37 21 c-56 34
-151 31 -213 -6 -44 -25 -50 -26 -70 -13 -79 51 -187 41 -262 -25 -143 -126
-72 -369 114 -387 65 -6 111 3 153 32 l35 24 48 -24 c66 -33 126 -32 199 5
l57 29 35 -21 c25 -14 59 -22 113 -25 l78 -4 -60 -30 c-39 -20 -70 -45 -90
-72 -29 -40 -31 -41 -91 -42 -87 -1 -159 -41 -193 -107 -13 -25 -19 -27 -49
-21 -63 11 -134 -14 -186 -66 -54 -54 -74 -108 -67 -182 14 -146 179 -240 314
-179 34 16 114 93 114 110 0 3 25 4 55 3 73 -5 155 33 191 88 25 37 27 38 97
42 67 4 88 13 287 108 118 56 230 114 249 128 27 20 35 22 42 11 50 -77 133
-239 153 -299 27 -83 46 -182 46 -248 0 -81 74 -119 127 -66 25 25 26 29 20
112 -8 111 -40 236 -83 331 -19 41 -82 157 -140 258 -125 216 -144 269 -144
398 0 159 56 285 170 388 241 217 615 166 792 -107 55 -85 78 -168 78 -281 0
-129 -19 -182 -144 -398 -128 -223 -167 -305 -197 -422 l-24 -90 0 -725 0
-725 28 -60 c37 -79 114 -156 191 -192 l61 -28 370 -5 c329 -4 374 -7 402 -23
38 -20 73 -82 73 -128 0 -46 -39 -108 -82 -130 -36 -18 -78 -19 -1199 -19
l-1161 0 -40 22 c-45 25 -78 80 -78 128 0 44 33 102 72 125 31 19 56 20 403
25 l370 5 61 28 c77 36 154 113 191 192 l28 60 3 518 3 517 -25 25 c-32 32
-70 32 -101 0 l-25 -24 0 -487 c0 -354 -3 -498 -12 -528 -16 -54 -90 -128
-144 -144 -29 -8 -141 -12 -376 -12 -372 0 -402 -4 -480 -63 l-43 -33 -43 33
c-70 53 -122 63 -327 63 -169 0 -183 -1 -203 -20 -30 -28 -30 -82 0 -110 20
-19 34 -20 200 -20 208 0 242 -10 278 -80 26 -51 25 -93 -2 -142 -45 -79 -40
-78 -528 -78 l-430 0 0 150 0 150 128 0 c115 0 130 2 150 20 30 28 30 82 0
110 -20 19 -34 20 -200 20 -177 0 -179 0 -203 -25 l-25 -24 0 -251 0 -251 25
-24 24 -25 484 0 c535 0 548 1 629 63 l43 33 43 -33 c87 -66 24 -63 1312 -63
1288 0 1225 -3 1312 63 l43 33 43 -33 c81 -62 94 -63 629 -63 l484 0 24 25 25
24 0 251 0 251 -25 24 -24 25 -484 0 c-535 0 -548 -1 -629 -63 l-43 -33 -43
33 c-78 59 -108 63 -481 63 -206 0 -351 4 -374 11 -53 14 -132 93 -146 144
-15 54 -15 1324 0 1415 16 102 55 206 120 320 84 149 74 138 101 113 13 -11
124 -69 248 -129 209 -99 230 -108 297 -112 70 -4 72 -5 97 -42 34 -52 113
-90 184 -90 52 0 56 -2 95 -46 77 -88 179 -108 278 -56 135 70 159 243 50 352
-52 52 -123 77 -186 66 -30 -6 -36 -4 -49 21 -34 66 -106 106 -193 107 -60 1
-62 2 -91 42 -20 27 -51 52 -90 72 l-60 30 78 4 c54 3 88 11 113 25 l35 21 57
-29 c73 -37 133 -38 199 -5 l48 24 35 -24 c98 -66 242 -36 310 67 35 53 43
140 18 204 -23 60 -91 120 -156 135 -54 13 -123 2 -167 -26 -20 -13 -26 -12
-70 13 -62 37 -157 40 -213 6 l-37 -21 -57 29 c-46 23 -72 29 -124 30 l-66 0
71 33 c46 22 82 47 104 73 32 38 36 40 69 31 70 -20 176 19 220 81 20 28 24
29 81 24 80 -8 137 15 189 73 146 166 -5 415 -220 364 -39 -10 -64 -24 -100
-59 -49 -47 -49 -47 -109 -43 -50 4 -69 0 -116 -23 -34 -16 -64 -40 -77 -61
-16 -25 -27 -32 -41 -28 -39 13 -116 6 -171 -15 l-58 -22 55 59 c36 40 59 75
67 104 12 42 16 45 60 57 80 20 144 87 160 165 5 25 14 31 54 41 198 50 228
322 47 415 -58 29 -102 34 -165 16 -72 -21 -129 -76 -148 -143 -13 -44 -18
-49 -57 -60 -84 -24 -152 -94 -166 -170 -4 -24 -12 -33 -25 -33 -34 0 -89 -28
-136 -70 -25 -22 -48 -39 -50 -37 -2 3 6 26 18 53 14 34 21 69 21 114 -1 63 0
66 33 87 20 13 44 44 60 77 23 47 27 66 23 114 -4 57 -3 58 33 84 47 34 89
117 89 177 0 27 -10 67 -24 97 -76 162 -302 172 -393 17 -24 -41 -28 -59 -28
-120 1 -40 -2 -73 -6 -73 -17 0 -72 -56 -91 -94 -15 -29 -22 -61 -22 -107 -1
-63 -2 -66 -40 -100 -23 -19 -51 -59 -67 -94 l-27 -59 -7 72 c-4 44 -16 90
-29 115 l-23 42 24 44 c17 32 23 60 23 106 0 46 -6 73 -23 106 l-24 44 24 45
c21 38 24 56 21 117 -4 93 -38 145 -117 186 -73 36 -131 36 -202 -1z m149
-142 c47 -44 15 -130 -48 -130 -38 0 -70 34 -70 75 0 41 32 75 70 75 14 0 36
-9 48 -20z m-728 -130 c17 0 50 -44 50 -66 0 -12 -9 -33 -21 -48 -41 -52 -129
-22 -129 44 0 41 47 86 78 75 8 -3 18 -5 22 -5z m1419 -5 c47 -24 55 -74 19
-112 -30 -33 -80 -31 -107 3 -40 51 -13 108 57 123 2 1 16 -6 31 -14z m-691
-165 c47 -44 15 -130 -48 -130 -38 0 -70 34 -70 75 0 41 32 75 70 75 14 0 36
-9 48 -20z m-587 -119 c49 -40 18 -131 -46 -131 -38 0 -75 37 -75 75 0 62 72
96 121 56z m1173 -2 c52 -41 19 -129 -49 -129 -39 0 -69 33 -69 75 0 67 64 96
118 54z m-1882 -139 c24 -25 29 -36 24 -58 -21 -88 -146 -79 -146 11 0 33 18
58 50 70 29 11 42 7 72 -23z m2601 3 c23 -22 22 -78 -3 -103 -25 -25 -81 -26
-103 -2 -8 9 -19 29 -22 44 -6 22 -1 33 24 59 26 25 37 30 59 24 15 -3 35 -14
45 -22z m-1305 -43 c22 -20 22 -26 22 -280 0 -254 0 -260 -22 -280 -12 -11
-34 -20 -48 -20 -14 0 -36 9 -48 20 -22 20 -22 26 -22 280 0 254 0 260 22 280
12 11 34 20 48 20 14 0 36 -9 48 -20z m-470 -98 c23 -23 202 -441 202 -471 0
-29 -43 -71 -73 -71 -14 0 -34 8 -46 18 -26 22 -203 437 -203 476 1 15 8 37
18 47 22 25 78 25 102 1z m944 1 c10 -9 18 -30 18 -49 0 -42 -174 -453 -201
-476 -12 -10 -32 -18 -46 -18 -30 0 -73 42 -73 71 0 32 180 452 202 472 25 22
76 22 100 0z m-1558 -64 c72 -57 -15 -167 -91 -114 -29 20 -37 59 -18 94 23
46 66 54 109 20z m2151 15 c8 -4 22 -19 31 -35 39 -76 -51 -145 -113 -87 -59
55 5 151 82 122z m-1897 -256 c31 -29 114 -108 185 -177 138 -137 150 -160
105 -208 -45 -48 -64 -37 -258 148 -98 94 -181 177 -184 185 -12 30 -6 55 19
79 38 39 68 32 133 -27z m1697 27 c25 -24 31 -49 19 -79 -3 -8 -86 -91 -184
-185 -142 -136 -185 -171 -207 -171 -37 0 -73 36 -73 74 0 27 19 50 128 157
252 248 265 257 317 204z m-2550 -190 c15 -14 25 -36 25 -51 0 -37 -36 -74
-72 -74 -31 0 -78 39 -78 64 0 73 76 111 125 61z m3348 14 c25 -11 47 -47 47
-75 0 -25 -47 -64 -76 -64 -66 0 -96 79 -49 125 27 28 42 30 78 14z m-3066
-121 c31 -29 30 -72 -2 -103 -27 -28 -42 -30 -79 -14 -33 15 -50 57 -37 91 19
50 78 63 118 26z m2794 11 c48 -25 44 -105 -7 -128 -37 -16 -52 -14 -79 14
-62 61 9 156 86 114z m-2310 -184 c112 -43 212 -84 222 -93 24 -21 22 -77 -3
-102 -11 -11 -33 -20 -48 -20 -16 0 -125 36 -243 81 -214 81 -259 106 -259
147 0 25 28 62 53 71 28 10 34 9 278 -84z m2049 57 c53 -67 20 -94 -239 -191
-118 -45 -227 -81 -243 -81 -15 0 -37 9 -48 20 -25 25 -27 81 -2 102 9 9 91
44 182 78 319 121 313 120 350 72z m-1888 -436 c42 -31 36 -116 -9 -130 -10
-3 -126 -10 -258 -16 -228 -10 -241 -10 -265 8 -17 13 -26 30 -28 55 -4 49 24
77 81 78 23 1 105 5 182 8 229 12 279 11 297 -3z m1827 -2 c94 -5 117 -10 133
-26 27 -27 21 -85 -12 -110 -24 -18 -37 -18 -265 -8 -132 6 -248 13 -258 16
-27 8 -47 62 -36 93 22 56 31 57 438 35z m-2578 -27 c31 -24 42 -56 28 -88
-31 -77 -139 -56 -139 27 0 55 69 93 111 61z m3003 -8 c68 -53 -6 -161 -83
-119 -10 5 -24 22 -30 39 -10 24 -10 34 3 59 24 47 66 55 110 21z m-3292 -19
c24 -25 29 -36 24 -58 -21 -89 -146 -78 -146 12 0 25 7 40 26 55 36 29 60 26
96 -9z m3592 9 c19 -15 26 -30 26 -55 0 -90 -125 -101 -146 -12 -5 22 0 33 24
58 36 35 60 38 96 9z m-2490 -240 c36 -17 51 -60 34 -95 -10 -23 -53 -47 -228
-131 -234 -112 -265 -120 -299 -77 -24 30 -26 43 -10 78 9 18 63 49 233 130
121 58 226 105 233 105 7 1 23 -4 37 -10z m1549 -89 c257 -121 287 -149 236
-214 -34 -43 -65 -35 -299 77 -175 84 -218 108 -228 131 -23 46 13 102 66 105
6 1 108 -44 225 -99z m-2224 -235 c46 -23 54 -66 20 -109 -41 -52 -129 -19
-129 48 0 26 16 49 45 64 26 15 31 15 64 -3z m2710 0 c46 -23 54 -66 20 -109
-41 -52 -129 -19 -129 48 0 26 16 49 45 64 26 15 31 15 64 -3z m-2956 -146
c24 -30 21 -66 -8 -94 -30 -31 -71 -32 -102 -3 -31 29 -30 72 3 105 20 20 31
24 57 19 18 -3 40 -16 50 -27z m3242 6 c31 -30 32 -71 3 -102 -29 -31 -72 -30
-103 2 -50 49 -17 122 58 124 10 1 29 -10 42 -24z m735 -2075 l0 -150 -431 0
c-428 0 -432 0 -471 22 -101 57 -102 194 -2 254 l39 24 433 0 432 0 0 -150z"/>
</g>
</svg>
