<?xml version="1.0" standalone="no"?>
<!DOCTYPE svg PUBLIC "-//W3C//DTD SVG 20010904//EN"
 "http://www.w3.org/TR/2001/REC-SVG-20010904/DTD/svg10.dtd">
<svg version="1.0" xmlns="http://www.w3.org/2000/svg"
 width="512.000000pt" height="512.000000pt" viewBox="0 0 512.000000 512.000000"
 preserveAspectRatio="xMidYMid meet">

<g transform="translate(0.000000,512.000000) scale(0.100000,-0.100000)"
fill="#000000" stroke="none">
<path d="M3260 5004 c-187 -28 -334 -107 -478 -258 -41 -44 -120 -149 -186
-249 -170 -259 -284 -352 -478 -391 -186 -38 -423 2 -712 120 -60 25 -113 41
-117 37 -4 -4 -19 -34 -34 -66 l-25 -58 64 -29 c102 -47 320 -118 430 -142
148 -32 360 -31 471 0 211 61 354 182 527 447 58 88 133 190 167 227 71 77
183 156 268 189 77 30 224 32 301 6 75 -27 161 -87 205 -146 88 -115 103 -225
63 -454 -43 -248 -33 -392 34 -485 94 -131 269 -177 569 -151 173 15 258 14
327 -1 119 -27 230 -116 282 -227 23 -50 27 -71 27 -154 0 -90 -2 -99 -38
-171 -76 -155 -182 -216 -445 -258 -146 -24 -274 -117 -334 -246 -41 -87 -50
-223 -23 -333 47 -194 200 -393 458 -596 161 -127 242 -260 267 -442 31 -228
-72 -496 -264 -685 -73 -72 -147 -119 -244 -156 -59 -23 -83 -26 -197 -26
-110 -1 -140 2 -199 22 -127 43 -207 91 -375 226 -52 42 -98 76 -101 76 -12 0
-92 -100 -88 -110 4 -14 223 -187 287 -228 298 -191 646 -190 915 2 75 54 198
181 249 259 52 78 111 206 137 297 34 116 39 329 11 441 -44 176 -139 316
-301 439 -280 213 -420 422 -420 625 0 60 5 82 31 134 47 94 124 142 259 161
112 16 159 29 246 71 141 67 246 183 296 327 19 55 23 87 22 177 0 95 -4 120
-27 179 -35 90 -102 182 -169 233 -150 115 -292 140 -614 112 -93 -9 -148 -9
-215 0 -238 31 -276 115 -214 471 30 176 31 252 5 355 -36 140 -115 253 -231
330 -118 79 -266 117 -389 99z"/>
<path d="M3430 4475 l0 -75 75 0 76 0 -3 73 -3 72 -72 3 -73 3 0 -76z"/>
<path d="M585 4391 c-249 -68 -432 -234 -510 -462 -24 -72 -28 -100 -29 -199
0 -134 14 -193 77 -315 52 -101 174 -225 372 -380 311 -244 437 -409 421 -552
-17 -146 -100 -273 -510 -778 -125 -154 -248 -314 -272 -355 -80 -136 -122
-271 -131 -425 -19 -326 139 -617 404 -747 190 -92 402 -85 615 22 106 53 131
71 430 313 509 412 631 495 787 541 179 52 430 -15 681 -183 47 -31 90 -60 96
-64 10 -6 101 109 93 118 -26 25 -228 148 -304 186 -139 69 -252 99 -395 106
-275 12 -395 -54 -1045 -582 -154 -125 -314 -247 -355 -271 -252 -149 -495
-131 -676 50 -127 127 -193 310 -181 501 14 222 68 325 353 675 402 495 483
612 540 780 26 79 24 207 -5 281 -55 143 -201 303 -466 513 -183 145 -235 194
-286 269 -148 214 -124 474 60 658 76 76 195 140 298 160 97 18 271 7 366 -24
l78 -25 9 21 c4 12 16 41 25 65 13 31 15 46 7 54 -6 6 -48 22 -94 36 -116 35
-348 41 -453 13z"/>
<path d="M3357 4243 c-4 -3 -7 -37 -7 -75 l0 -68 75 0 75 0 0 75 0 75 -68 0
c-38 0 -72 -3 -75 -7z"/>
<path d="M959 3889 c-92 -14 -169 -68 -214 -151 -27 -48 -30 -62 -30 -143 0
-102 17 -147 82 -211 108 -108 292 -114 407 -13 160 141 124 402 -67 493 -60
28 -113 35 -178 25z m124 -166 c63 -32 90 -117 59 -187 -26 -57 -70 -86 -132
-86 -140 0 -201 161 -97 259 44 40 107 46 170 14z"/>
<path d="M3229 3407 c-105 -54 -160 -146 -160 -263 0 -228 231 -365 438 -262
137 69 194 253 122 396 -53 106 -144 162 -266 162 -61 0 -80 -5 -134 -33z
m215 -136 c44 -30 66 -70 66 -125 0 -86 -61 -149 -146 -149 -146 0 -202 192
-78 274 39 25 119 25 158 0z"/>
<path d="M1834 2665 c-171 -37 -327 -176 -384 -341 -117 -338 138 -694 497
-694 258 0 478 192 515 449 39 268 -144 530 -409 586 -82 18 -138 18 -219 0z
m249 -165 c79 -30 158 -104 199 -188 30 -60 33 -75 33 -157 0 -80 -4 -97 -32
-157 -101 -215 -360 -284 -556 -149 -101 69 -163 202 -154 328 19 255 269 413
510 323z"/>
<path d="M3185 2083 c-259 -93 -337 -412 -151 -611 148 -158 399 -156 545 3
69 76 95 146 95 255 1 75 -3 93 -31 152 -39 82 -100 145 -178 183 -76 38 -202
45 -280 18z m210 -152 c113 -52 164 -178 116 -287 -42 -93 -107 -137 -206
-137 -178 0 -283 188 -189 340 56 90 183 128 279 84z"/>
<path d="M3215 806 c-6 -8 -25 -32 -43 -54 l-32 -40 57 -47 57 -47 38 44 c63
71 63 69 3 116 -59 46 -66 49 -80 28z"/>
</g>
</svg>
