<?xml version="1.0" standalone="no"?>
<!DOCTYPE svg PUBLIC "-//W3C//DTD SVG 20010904//EN"
 "http://www.w3.org/TR/2001/REC-SVG-20010904/DTD/svg10.dtd">
<svg version="1.0" xmlns="http://www.w3.org/2000/svg"
 width="512.000000pt" height="512.000000pt" viewBox="0 0 512.000000 512.000000"
 preserveAspectRatio="xMidYMid meet">

<g transform="translate(0.000000,512.000000) scale(0.100000,-0.100000)"
fill="#000000" stroke="none">
<path d="M205 5033 c-94 -34 -163 -105 -191 -199 -36 -122 3 -643 72 -950 36
-163 98 -345 125 -366 30 -25 66 -22 94 7 32 31 31 43 -6 151 -50 146 -101
381 -122 562 l-4 32 159 0 c154 0 158 0 158 -21 0 -52 55 -285 95 -407 93
-279 222 -484 454 -725 98 -102 169 -121 252 -69 53 35 219 219 306 340 151
211 264 510 318 845 l6 37 154 0 c136 0 155 -2 155 -16 0 -48 -35 -247 -66
-374 -98 -401 -271 -700 -566 -975 -47 -44 -91 -90 -97 -103 -23 -44 -4 -78
88 -162 264 -242 436 -514 542 -858 32 -103 83 -345 94 -449 l7 -63 -156 0
-155 0 -6 38 c-61 384 -195 702 -402 951 -91 109 -205 221 -247 243 -50 26
-103 20 -156 -17 -50 -35 -217 -222 -297 -333 -149 -205 -266 -508 -313 -805
l-13 -77 -153 0 -154 0 0 28 c0 46 39 270 65 372 100 396 272 688 569 965 91
86 96 93 96 131 0 39 -6 46 -121 160 -129 127 -209 220 -278 322 -23 34 -53
69 -66 78 -44 28 -105 -7 -105 -61 0 -56 140 -245 303 -408 l89 -88 -114 -117
c-328 -339 -500 -709 -577 -1247 -26 -177 -45 -465 -39 -592 7 -156 60 -244
179 -298 55 -24 71 -27 138 -23 121 7 201 59 252 164 32 65 32 68 40 263 24
624 164 1004 500 1356 l92 96 25 -23 c14 -13 65 -68 114 -123 305 -341 429
-702 457 -1335 6 -144 11 -183 28 -221 31 -69 84 -122 154 -154 55 -24 71 -27
138 -23 127 7 205 61 260 178 25 54 26 59 24 240 -7 477 -90 894 -242 1215
-94 198 -211 363 -385 542 l-101 103 88 88 c350 345 537 753 612 1333 19 152
39 521 30 584 -14 106 -74 192 -170 243 -70 37 -187 38 -259 3 -63 -31 -116
-84 -146 -146 -21 -43 -25 -70 -31 -225 -11 -233 -25 -367 -59 -530 -70 -341
-193 -584 -425 -840 -118 -129 -104 -127 -197 -29 -341 362 -481 738 -507
1363 -7 175 -11 209 -30 252 -63 142 -233 218 -376 167z m184 -160 c14 -10 36
-39 48 -64 19 -38 22 -66 26 -216 l4 -173 -152 0 -152 0 -6 83 c-12 142 -8
276 7 305 18 34 53 68 86 81 35 15 107 7 139 -16z m1775 13 c38 -16 80 -67 90
-109 3 -15 3 -101 0 -192 l-7 -165 -154 0 -154 0 6 163 c8 205 10 220 42 258
47 55 112 72 177 45z m-1701 -3933 c-3 -93 -9 -184 -14 -203 -5 -20 -24 -51
-44 -70 -30 -29 -43 -34 -92 -38 -48 -3 -64 0 -92 20 -71 48 -82 115 -65 366
l7 92 152 0 152 0 -4 -167z m1781 159 c3 -5 6 -89 8 -188 3 -159 1 -182 -15
-209 -30 -48 -65 -69 -127 -73 -45 -3 -61 0 -89 20 -60 40 -68 71 -75 276 l-6
182 149 0 c82 0 152 -4 155 -8z"/>
<path d="M2883 4600 c-67 -34 -109 -77 -145 -150 -22 -42 -23 -56 -21 -225 4
-378 50 -691 144 -981 22 -68 48 -129 59 -139 29 -26 79 -24 102 4 25 32 23
59 -11 155 -38 108 -76 263 -101 416 -31 190 -47 170 135 170 l154 0 6 -37
c63 -393 193 -701 402 -952 91 -109 205 -221 247 -243 49 -25 103 -20 155 16
49 35 220 226 298 334 152 212 264 500 313 805 l13 77 153 0 154 0 0 -27 c0
-16 -9 -82 -20 -148 -84 -511 -263 -859 -609 -1186 -95 -90 -101 -98 -101
-135 0 -37 8 -47 153 -194 87 -88 181 -196 219 -250 182 -257 300 -580 352
-962 l13 -98 -159 0 c-154 0 -158 0 -158 21 0 48 -53 280 -91 394 -62 192
-179 411 -298 560 -78 97 -216 237 -252 255 -52 27 -103 25 -154 -5 -47 -27
-193 -185 -285 -306 -165 -219 -291 -532 -340 -846 l-12 -73 -155 0 -155 0 6
58 c66 556 267 976 629 1307 90 82 114 118 102 157 -4 13 -67 82 -139 153 -72
72 -166 177 -209 235 -109 148 -121 160 -151 160 -33 0 -76 -41 -76 -73 0 -48
141 -237 298 -399 l95 -98 -114 -117 c-168 -174 -257 -297 -353 -490 -168
-337 -253 -751 -259 -1253 -2 -174 -1 -188 21 -235 29 -63 83 -119 147 -153
42 -22 63 -27 130 -27 95 0 152 22 212 82 75 75 86 113 95 323 17 423 75 693
202 955 35 72 90 167 122 212 67 92 241 290 264 299 18 7 138 -118 239 -251
230 -301 339 -662 360 -1190 7 -174 11 -206 30 -250 28 -63 81 -119 146 -153
67 -36 186 -38 256 -5 60 27 119 86 149 149 31 63 37 179 21 422 -49 733 -232
1195 -635 1595 l-88 88 109 112 c96 98 207 236 268 332 225 355 346 844 349
1410 1 184 -1 204 -20 246 -52 112 -141 171 -267 177 -71 4 -84 1 -142 -27
-73 -36 -107 -72 -143 -151 -23 -49 -26 -71 -33 -245 -19 -480 -110 -821 -292
-1103 -52 -80 -173 -226 -249 -300 l-55 -53 -69 73 c-358 378 -494 740 -522
1393 -9 212 -19 248 -85 322 -55 60 -117 87 -212 91 -73 3 -85 1 -142 -28z
m214 -140 c59 -36 69 -73 77 -278 l6 -183 -153 3 -152 3 -9 164 c-5 115 -5
176 3 201 12 39 52 87 86 101 37 15 109 10 142 -11z m1803 -2 c69 -48 81 -116
64 -366 l-7 -92 -152 0 -152 0 4 168 c6 223 14 248 83 291 48 29 117 28 160
-1z m-1726 -3930 c-3 -95 -10 -187 -16 -205 -12 -42 -68 -90 -114 -99 -79 -15
-164 44 -179 123 -3 18 -3 106 1 193 l7 160 154 0 153 0 -6 -172z m1791 58
c15 -231 3 -287 -69 -340 -38 -29 -124 -29 -163 0 -58 42 -71 91 -76 282 l-4
172 152 0 153 0 7 -114z"/>
</g>
</svg>
