<?xml version="1.0" standalone="no"?>
<!DOCTYPE svg PUBLIC "-//W3C//DTD SVG 20010904//EN"
 "http://www.w3.org/TR/2001/REC-SVG-20010904/DTD/svg10.dtd">
<svg version="1.0" xmlns="http://www.w3.org/2000/svg"
 width="512.000000pt" height="512.000000pt" viewBox="0 0 512.000000 512.000000"
 preserveAspectRatio="xMidYMid meet">

<g transform="translate(0.000000,512.000000) scale(0.100000,-0.100000)"
fill="#000000" stroke="none">
<path d="M2380 4954 c-160 -18 -230 -29 -330 -51 -900 -197 -1601 -880 -1820
-1775 -52 -211 -64 -322 -64 -568 0 -304 35 -520 129 -789 297 -850 1019
-1445 1927 -1587 157 -25 518 -25 675 -1 527 83 993 317 1358 682 373 373 613
860 687 1395 19 141 16 497 -6 638 -73 470 -258 877 -559 1228 -374 437 -883
716 -1474 809 -93 15 -448 28 -523 19z m510 -179 c885 -135 1610 -785 1834
-1645 56 -214 71 -335 70 -575 0 -235 -13 -340 -69 -561 -95 -370 -284 -707
-554 -987 -272 -282 -605 -485 -970 -592 -242 -71 -379 -90 -646 -89 -249 1
-374 17 -598 78 -746 206 -1347 807 -1553 1553 -62 226 -78 349 -78 598 -1
262 18 400 86 635 216 750 839 1352 1596 1539 105 27 259 54 367 65 83 9 414
-4 515 -19z"/>
<path d="M2395 4633 c-40 -6 -75 -40 -75 -74 0 -74 31 -88 173 -80 98 5 111 8
128 30 26 32 24 77 -6 106 -22 23 -31 25 -107 24 -46 -1 -96 -4 -113 -6z"/>
<path d="M1910 4535 c-707 -235 -1239 -830 -1385 -1550 -27 -132 -45 -292 -45
-392 0 -55 4 -67 25 -88 31 -32 78 -33 109 -2 20 20 23 35 29 147 25 486 220
926 561 1266 238 237 496 389 829 489 49 15 96 36 107 48 45 47 5 127 -62 127
-18 -1 -94 -21 -168 -45z"/>
<path d="M1506 2950 c-63 -16 -153 -70 -197 -117 -22 -24 -55 -74 -72 -111
-29 -61 -32 -76 -32 -163 0 -90 2 -99 37 -171 45 -91 103 -147 196 -191 61
-29 76 -32 162 -32 86 0 101 3 162 32 93 44 151 100 196 191 35 72 37 81 37
172 0 91 -2 100 -37 172 -68 136 -188 217 -336 224 -42 2 -94 -1 -116 -6z
m168 -162 c86 -26 166 -136 166 -228 0 -124 -116 -240 -240 -240 -124 0 -240
116 -240 240 0 63 23 114 75 165 70 71 145 90 239 63z"/>
<path d="M2466 2950 c-63 -16 -153 -70 -197 -117 -22 -24 -55 -74 -72 -111
-29 -61 -32 -76 -32 -163 0 -90 2 -99 37 -171 45 -91 103 -147 196 -191 61
-29 76 -32 162 -32 86 0 101 3 162 32 93 44 151 100 196 191 35 72 37 81 37
172 0 91 -2 100 -37 172 -68 136 -188 217 -336 224 -42 2 -94 -1 -116 -6z
m168 -162 c55 -16 138 -99 154 -154 28 -94 8 -169 -63 -239 -101 -102 -229
-102 -330 0 -102 101 -102 229 0 330 70 71 145 90 239 63z"/>
<path d="M3426 2950 c-63 -16 -153 -70 -197 -117 -22 -24 -55 -74 -72 -111
-29 -61 -32 -76 -32 -163 0 -90 2 -99 37 -171 45 -91 103 -147 196 -191 61
-29 76 -32 162 -32 86 0 101 3 162 32 93 44 151 100 196 191 35 72 37 81 37
172 0 91 -2 100 -37 172 -68 136 -188 217 -336 224 -42 2 -94 -1 -116 -6z
m168 -162 c86 -26 166 -136 166 -228 0 -124 -116 -240 -240 -240 -124 0 -240
116 -240 240 0 63 23 114 75 165 70 71 145 90 239 63z"/>
</g>
</svg>
